<svg xmlns="http://www.w3.org/2000/svg" viewBox="0 0 64 64">
  <path d="M26.65 60.595c-13.124-1.53-23.7-12.198-25.216-25.437-.225-1.957-.107-6.173.223-8.016C3.907 14.57 14.04 4.988 26.746 3.415c1.612-.2 4.774-.2 6.517 0 6.943.793 13.718 4.328 18.281 9.537 3.01 3.436 5.359 7.847 6.362 11.95.18.738.434 1.425.562 1.528.158.127.821.188 2.047.188 1.953 0 2.173.076 2.173.752 0 .36-5.06 9.101-5.653 9.767-.367.412-.875.323-1.283-.225-.368-.493-5.075-8.373-5.46-9.14-.184-.364-.18-.463.032-.785.223-.341.332-.37 1.425-.37 1.2 0 1.719-.21 1.585-.64-1.482-4.777-3.065-7.56-6.056-10.644-3.584-3.696-7.82-5.994-12.928-7.01-2.4-.478-6.213-.478-8.612 0-3.312.659-6.309 1.887-9.092 3.727-2.003 1.325-5.197 4.503-6.504 6.474-5.594 8.43-5.594 18.538 0 26.97 1.294 1.949 4.49 5.129 6.5 6.465 2.761 1.837 5.775 3.074 9.096 3.735 2.405.48 6.212.478 8.623-.002 4.3-.855 7.937-2.585 11.278-5.362.63-.523 1.204-.951 1.275-.951.072 0 .835.706 1.694 1.569l1.564 1.568-.443.467c-.244.257-.949.877-1.566 1.378-4.205 3.41-9.485 5.621-14.9 6.241-1.558.179-5.053.175-6.613-.007z" stroke="#f00" fill="red" stroke-width="1.116"/>
</svg>
