<svg xmlns="http://www.w3.org/2000/svg" viewBox="0 0 64 64">
  <g transform="matrix(1.2824 0 0 1.2885 -3.541 -11.752)" fill="#fff" fill-rule="evenodd">
    <ellipse rx="9.273" ry="9" cy="29" cx="13.273"/>
    <circle cy="23.818" cx="26.727" r="14.182"/>
    <circle cy="27" cx="40.636" r="11"/>
  </g>
  <ellipse rx="1.091" ry="2.546" transform="rotate(20)" cy="-2.297" cx="-58.413" fill="#fff" fill-rule="evenodd"/>
  <ellipse rx="1.091" transform="rotate(20)" ry="2.546" cy="-9.476" cx="-50.384" fill="#fff" fill-rule="evenodd"/>
  <ellipse rx="1.091" ry="2.546" transform="rotate(20)" cy="-17.001" cx="-29.711" fill="#fff" fill-rule="evenodd"/>
  <ellipse rx="1.091" transform="rotate(20)" ry="2.546" cy="-9.138" cx="-39.619" fill="#fff" fill-rule="evenodd"/>
  <ellipse cx="-54.978" cy="15.017" ry="15.054" rx="14.989" fill="#ff4545" fill-rule="evenodd"/>
  <g fill="none" stroke="#fff">
    <path d="M75.492 5.733l6.79-3.184M77.001 4.986l-1.764-.638M76.39 6.804l.637-1.763M80.77 3.219l.637-1.764M82.559 3.91l-1.764-.637M75.492 5.733l6.79-3.184M77.001 4.986l-1.764-.638M76.39 6.804l.637-1.763M80.77 3.219l.637-1.764M82.559 3.91l-1.764-.637" stroke-width=".25"/>
    <g>
      <path d="M77.288.743l3.184 6.79M78.035 2.252l.637-1.764M76.217 1.64l1.763.637M79.802 6.02l1.764.638M79.11 7.81l.638-1.764" stroke-width=".25"/>
    </g>
    <g>
      <path d="M79.798 1.599l-1.836 5.078M79.41 2.748l1.223-.574M78.796 1.51l.573 1.223M78.391 5.566l.574 1.223M77.128 6.125l1.222-.574" stroke-width=".18"/>
    </g>
    <g>
      <path d="M81.43 5.067L76.353 3.23M80.282 4.68l.573 1.222M81.52 4.065l-1.223.573M77.463 3.66l-1.222.574M76.905 2.397l.573 1.223" stroke-width=".18"/>
    </g>
    <g>
      <path d="M89.137-1.859h7.5M90.82-1.895l-1.325-1.326M89.495-.509l1.326-1.326M94.983-1.895l1.326-1.326M96.31-.509l-1.327-1.326M89.137-1.859h7.5M90.82-1.895l-1.325-1.326M89.495-.509l1.326-1.326M94.983-1.895l1.326-1.326M96.31-.509l-1.327-1.326" stroke-width=".25"/>
      <g>
        <path d="M92.882-5.615v7.5M92.918-3.932l1.326-1.326M91.531-5.258l1.326 1.326M92.918.231l1.326 1.326M91.531 1.557L92.857.231" stroke-width=".25"/>
      </g>
      <g>
        <path d="M94.79-3.774L90.974.044M93.952-2.899h1.35M93.922-4.28v1.35M91.833-.78V.57M90.452-.81h1.35" stroke-width=".18"/>
      </g>
      <g>
        <path d="M94.797.059L90.978-3.76M93.922-.78V.57M95.302-.81h-1.35M91.802-2.899h-1.35M91.833-4.28v1.35" stroke-width=".18"/>
      </g>
    </g>
    <g>
      <path d="M102.106 6.59l-2.455 7.086M101.589 8.192l1.687-.819M100.713 6.485l.82 1.687M100.226 12.125l.819 1.687M98.482 12.924l1.687-.819M102.106 6.59l-2.455 7.086M101.589 8.192l1.687-.819M100.713 6.485l.82 1.687M100.226 12.125l.819 1.687M98.482 12.924l1.687-.819" stroke-width=".25"/>
      <g>
        <path d="M104.429 11.357l-7.087-2.455M102.827 10.84l.819 1.687M104.534 9.964l-1.688.82M98.894 9.477l-1.687.82M98.095 7.733l.818 1.687" stroke-width=".25"/>
      </g>
      <g>
        <path d="M102.065 12.559L99.707 7.7M101.512 11.48l-.442 1.275M102.827 11.903l-1.276-.442M100.204 8.783l-1.276-.442M100.685 7.489l-.442 1.275" stroke-width=".18"/>
      </g>
      <g>
        <path d="M98.441 11.31l4.858-2.359M99.52 10.757l-1.276-.442M99.097 12.072l.442-1.276M102.216 9.448l.442-1.276M103.511 9.93l-1.276-.443" stroke-width=".18"/>
      </g>
    </g>
    <g>
      <path d="M110.265 2.82l5.244-5.362M111.416 1.592l-1.875.02M111.48 3.51l-.021-1.876M114.326-1.384l-.02-1.875M116.244-1.363l-1.875.02M110.265 2.82l5.244-5.362M111.416 1.592l-1.875.02M111.48 3.51l-.021-1.876M114.326-1.384l-.02-1.875M116.244-1.363l-1.875.02" stroke-width=".25"/>
      <g>
        <path d="M110.197-2.482l5.363 5.243M111.426-1.331l-.02-1.875M109.509-1.267l1.875-.021M114.402 1.579l1.875-.02M114.38 3.497l-.02-1.875" stroke-width=".25"/>
      </g>
      <g>
        <path d="M112.848-2.56l.06 5.4M112.888-1.349l.944-.965M111.88-2.292l.964.944M112.921 1.648l.966.944M111.934 2.614l.944-.966" stroke-width=".18"/>
      </g>
      <g>
        <path d="M115.593.115l-5.4.06M114.381.155l.966.944M115.325-.854l-.944.965M111.384.188l-.944.965M110.419-.8l.965.945" stroke-width=".18"/>
      </g>
    </g>
  </g>
  <path d="M-21.352 60.935s14.15-4.969 21.814-4.969c7.665 0 14.15 4.97 21.815 4.97 7.665 0 14.15-4.97 21.815-4.97 7.665 0 14.15 4.97 21.814 4.97 7.665 0 21.815-4.97 21.815-4.97" fill="none" stroke="#fff" stroke-width="1.202"/>
  <path d="M-21.352 56.96s14.15-4.97 21.814-4.97c7.665 0 14.15 4.97 21.815 4.97 7.665 0 14.15-4.97 21.815-4.97 7.665 0 14.15 4.97 21.814 4.97 7.665 0 21.815-4.97 21.815-4.97" fill="none" stroke="#fff" stroke-width="1.202"/>
  <path d="M-21.352 52.985s14.15-4.97 21.814-4.97c7.665 0 14.15 4.97 21.815 4.97 7.665 0 14.15-4.97 21.815-4.97 7.665 0 14.15 4.97 21.814 4.97 7.665 0 21.815-4.97 21.815-4.97" fill="none" stroke="#fff" stroke-width="1.202"/>
  <path d="M-21.352 49.01s14.15-4.97 21.814-4.97c7.665 0 14.15 4.97 21.815 4.97 7.665 0 14.15-4.97 21.815-4.97 7.665 0 14.15 4.97 21.814 4.97 7.665 0 21.815-4.97 21.815-4.97" fill="none" stroke="#fff" stroke-width="1.202"/>
  <path d="M-21.352 45.034s14.15-4.97 21.814-4.97c7.665 0 14.15 4.97 21.815 4.97 7.665 0 14.15-4.97 21.815-4.97 7.665 0 14.15 4.97 21.814 4.97 7.665 0 21.815-4.97 21.815-4.97" fill="none" stroke="#fff" stroke-width="1.202"/>
</svg>
