<svg xmlns="http://www.w3.org/2000/svg" viewBox="0 0 64 64">
  <g transform="matrix(1.15762 0 0 1.15762 -5.079 -4.036)" stroke="#fff" fill="none">
    <g stroke-linecap="round">
      <path d="M31.847 26.113s-2.625-3.465-2.924-5.528c-.71-4.89 2.924-14.528 2.924-14.528"/>
      <path d="M32.153 26.113s2.625-3.465 2.924-5.528c.71-4.89-2.924-14.528-2.924-14.528"/>
    </g>
    <circle cx="32" cy="32" r="4.455"/>
    <g stroke-linecap="round">
      <path d="M37.26 34.867s4.314-.541 6.25.231c4.588 1.83 11.12 9.797 11.12 9.797"/>
      <path d="M37.108 35.132s1.688 4.006 3.325 5.296c3.88 3.058 14.044 4.732 14.044 4.732"/>
    </g>
    <g stroke-linecap="round">
      <path d="M26.8 34.867s-4.314-.541-6.25.231c-4.588 1.83-11.12 9.797-11.12 9.797"/>
      <path d="M26.953 35.132s-1.689 4.006-3.326 5.296c-3.88 3.058-14.043 4.732-14.043 4.732"/>
    </g>
  </g>
</svg>
